<?xml version="1.0" standalone="no"?>
<!DOCTYPE svg PUBLIC "-//W3C//DTD SVG 20010904//EN"
 "http://www.w3.org/TR/2001/REC-SVG-20010904/DTD/svg10.dtd">
<svg version="1.0" xmlns="http://www.w3.org/2000/svg"
 width="607.000000pt" height="217.000000pt" viewBox="0 0 607.000000 217.000000"
 preserveAspectRatio="xMidYMid meet">
<metadata>
Created by potrace 1.16, written by Peter Selinger 2001-2019
</metadata>
<g transform="translate(0.000000,217.000000) scale(0.100000,-0.100000)"
fill="#000000" stroke="none">
<path d="M5668 2113 c-16 -18 -38 -57 -38 -67 0 -13 95 -59 120 -58 24 0 31
-6 44 -39 44 -109 -5 -364 -119 -624 -68 -157 -117 -239 -189 -321 -120 -134
-257 -151 -353 -41 -64 73 -67 151 -11 282 88 204 415 546 613 639 30 15 55
31 55 37 0 39 -102 -6 -226 -100 -156 -117 -430 -429 -508 -577 -23 -44 -30
-73 -34 -132 -4 -73 -2 -81 31 -144 l35 -67 -34 -45 c-33 -44 -130 -111 -169
-118 -16 -2 -30 16 -72 97 -74 140 -119 174 -160 122 -10 -13 -34 -56 -53 -96
-18 -39 -39 -70 -44 -68 -6 2 -16 29 -22 61 -13 63 -25 82 -48 73 -21 -8 -33
-61 -50 -213 -32 -286 -29 -263 -37 -224 -7 38 -11 144 -34 915 -15 494 -19
570 -35 594 -12 20 -43 9 -57 -19 -16 -33 -44 -243 -88 -650 -52 -482 -59
-535 -70 -533 -6 1 -18 5 -27 8 -13 5 -26 -5 -50 -40 l-33 -47 -2 49 c-8 161
-21 203 -60 203 -9 0 -63 -47 -121 -105 l-104 -105 -158 0 c-133 0 -161 3
-175 16 -9 9 -34 53 -57 98 -46 93 -82 136 -114 136 -31 0 -43 -15 -89 -109
-21 -45 -44 -80 -50 -78 -5 2 -13 28 -18 57 -11 77 -43 105 -67 60 -13 -24
-34 -168 -51 -345 -11 -113 -14 -124 -20 -85 -4 25 -15 301 -24 615 -26 912
-28 938 -78 919 -23 -8 -33 -48 -57 -214 -19 -135 -110 -951 -110 -986 0 -12
-7 -14 -29 -9 -25 5 -33 1 -62 -37 l-34 -42 -6 107 c-9 162 -32 173 -140 71
-71 -67 -150 -111 -239 -132 -192 -46 -475 -6 -765 111 l-133 53 -31 -22 c-18
-12 -34 -24 -37 -27 -6 -6 194 -91 305 -129 294 -99 614 -109 795 -23 65 31
127 79 161 124 l25 35 0 -100 c0 -121 5 -142 37 -150 18 -5 32 0 54 22 16 15
31 25 34 22 3 -3 9 -39 12 -79 7 -91 17 -113 42 -99 10 5 22 17 25 26 12 32
36 213 80 624 25 228 48 442 52 475 10 86 23 103 24 30 0 -125 41 -1217 50
-1380 12 -197 22 -245 50 -245 10 0 21 8 24 18 6 22 20 153 46 432 12 124 26
229 31 235 6 5 13 5 21 -3 34 -34 71 0 133 118 l42 82 20 -28 c11 -16 36 -63
55 -104 53 -116 38 -110 263 -110 l195 0 89 90 c49 50 92 90 95 90 3 0 6 -48
6 -106 0 -58 5 -114 10 -125 15 -26 53 -24 81 6 13 13 27 25 31 25 3 0 9 -35
13 -77 4 -43 9 -86 11 -95 8 -28 43 -22 55 10 14 34 46 293 99 777 40 368 60
476 60 329 0 -323 54 -1528 71 -1571 10 -26 44 -31 53 -7 3 9 20 163 37 342
17 180 32 328 33 329 1 2 17 -3 34 -9 29 -11 34 -10 57 13 14 14 46 63 70 109
l43 84 17 -29 c9 -17 38 -70 64 -120 37 -72 51 -91 71 -93 46 -7 105 20 208
96 103 74 104 75 141 63 69 -20 142 -14 207 19 87 43 123 88 213 262 100 193
155 328 191 473 50 196 51 331 4 400 -13 20 -24 42 -24 49 0 13 -86 86 -100
86 -4 0 -14 -8 -22 -17z"/>
<path d="M700 2105 c-59 -20 -134 -76 -164 -123 -122 -194 -39 -479 217 -749
82 -87 273 -243 296 -243 9 0 29 9 45 19 l28 19 -76 56 c-243 179 -410 383
-467 569 -17 53 -20 86 -17 145 5 85 20 122 70 171 44 44 72 57 144 70 76 14
147 2 232 -40 l64 -31 24 23 c13 12 24 26 24 31 0 5 -39 28 -87 51 -83 39 -93
42 -188 44 -68 2 -115 -2 -145 -12z"/>
<path d="M1298 2096 c-98 -35 -177 -92 -215 -155 -71 -119 -43 -251 55 -251
46 0 71 16 88 55 23 56 9 172 -23 182 -20 7 -47 -51 -47 -102 -1 -38 -5 -50
-16 -50 -23 0 -24 58 -1 103 57 111 226 186 367 161 215 -37 277 -245 149
-499 -145 -288 -523 -578 -1042 -799 -184 -78 -182 -78 -228 -47 -67 46 -155
29 -195 -37 -40 -65 -15 -154 51 -187 89 -46 156 -11 208 108 3 7 70 40 149
72 390 159 683 341 897 555 124 123 194 217 245 327 111 239 63 466 -118 555
-49 24 -71 28 -157 31 -86 2 -110 -1 -167 -22z"/>
<path d="M5860 1943 c0 -22 106 -123 130 -123 21 0 63 56 57 75 -13 40 -187
84 -187 48z"/>
<path d="M200 830 c-173 -81 -214 -297 -80 -430 100 -101 251 -106 359 -13 23
19 51 53 62 75 22 43 38 148 23 148 -5 0 -30 -7 -55 -17 -40 -14 -48 -22 -58
-54 -14 -46 -69 -96 -117 -105 -111 -21 -208 87 -175 196 30 102 154 143 240
79 30 -22 31 -22 75 -5 25 10 48 21 51 25 7 13 -59 76 -101 96 -59 29 -167 31
-224 5z"/>
</g>
</svg>
